<?xml version="1.0" encoding="utf-8"?>
<!-- Generator: Adobe Illustrator 16.0.0, SVG Export Plug-In . SVG Version: 6.00 Build 0)  -->
<!DOCTYPE svg PUBLIC "-//W3C//DTD SVG 1.1//EN" "http://www.w3.org/Graphics/SVG/1.1/DTD/svg11.dtd">
<svg version="1.1" id="图层_1" xmlns="http://www.w3.org/2000/svg" xmlns:xlink="http://www.w3.org/1999/xlink" x="0px" y="0px"
	 width="25.512px" height="25.513px" viewBox="0 0 25.512 25.513" enable-background="new 0 0 25.512 25.513" xml:space="preserve">
<g>
	<g>
		<rect x="9.055" y="10.97" fill="#FFFFFF" width="7.419" height="1.495"/>
	</g>
	<g>
		<rect x="9.055" y="14.697" fill="#FFFFFF" width="7.419" height="1.495"/>
	</g>
	<g>
		<rect x="9.055" y="18.426" fill="#FFFFFF" width="7.419" height="1.495"/>
	</g>
	<g>
		<path fill="#FFFFFF" d="M21.573,25.513H3.954c-0.665,0-1.207-0.544-1.207-1.214V10.601H1.219c-0.538,0-1.006-0.344-1.164-0.855
			c-0.156-0.505,0.03-1.047,0.464-1.347l11.304-8.101c0.53-0.383,1.317-0.418,1.931,0.023L25.02,8.405
			c0.425,0.313,0.595,0.856,0.431,1.357c-0.163,0.501-0.621,0.838-1.141,0.838H22.78v13.698
			C22.78,24.969,22.239,25.513,21.573,25.513z M4.234,24.018h17.06V9.105h2.142L12.888,1.538c-0.054-0.039-0.092-0.048-0.101-0.048
			c-0.044,0-0.078,0.008-0.1,0.023L2.093,9.105h2.142V24.018z"/>
	</g>
</g>
</svg>
