<?xml version="1.0" encoding="utf-8"?>
<!-- Generator: Adobe Illustrator 16.0.0, SVG Export Plug-In . SVG Version: 6.00 Build 0)  -->
<!DOCTYPE svg PUBLIC "-//W3C//DTD SVG 1.1//EN" "http://www.w3.org/Graphics/SVG/1.1/DTD/svg11.dtd">
<svg version="1.1" id="图层_1" xmlns="http://www.w3.org/2000/svg" xmlns:xlink="http://www.w3.org/1999/xlink" x="0px" y="0px"
	 width="25.512px" height="25.513px" viewBox="0 0 25.512 25.513" enable-background="new 0 0 25.512 25.513" xml:space="preserve">
<path fill="#FFFFFF" d="M21.596,20.582H3.916c-0.318,0-0.577,0.258-0.577,0.577c0,0.318,0.259,0.576,0.577,0.576h17.68
	c0.318,0,0.577-0.258,0.577-0.576C22.173,20.84,21.914,20.582,21.596,20.582z M24.095,0H1.417C0.635,0,0,0.635,0,1.418v22.677
	c0,0.783,0.635,1.418,1.417,1.418h22.677c0.782,0,1.417-0.635,1.417-1.418V1.418C25.512,0.635,24.877,0,24.095,0z M24.358,23.792
	c0,0.313-0.254,0.566-0.567,0.566H1.721c-0.313,0-0.567-0.254-0.567-0.566V1.721c0-0.313,0.254-0.567,0.567-0.567h22.07
	c0.313,0,0.567,0.254,0.567,0.567V23.792z M12.334,18.521c0.057,0.062,0.125,0.11,0.204,0.143c0.013,0.005,0.027,0.004,0.04,0.008
	c0.055,0.017,0.108,0.033,0.168,0.033h0.02c0.06,0,0.113-0.017,0.168-0.033c0.013-0.004,0.027-0.003,0.04-0.008
	c0.079-0.032,0.147-0.081,0.204-0.143l6.782-6.781c0.222-0.222,0.222-0.58,0-0.803l-0.014-0.014c-0.221-0.221-0.58-0.221-0.801,0
	l-5.813,5.813V4.084c0-0.313-0.254-0.567-0.566-0.567h-0.02c-0.313,0-0.566,0.254-0.566,0.567v12.651l-5.813-5.813
	c-0.222-0.221-0.58-0.221-0.803,0l-0.014,0.014c-0.221,0.223-0.221,0.581,0,0.803L12.334,18.521z"/>
</svg>
