<?xml version="1.0" standalone="no"?><!DOCTYPE svg PUBLIC "-//W3C//DTD SVG 1.1//EN" "http://www.w3.org/Graphics/SVG/1.1/DTD/svg11.dtd"><svg t="1567061704822" class="icon" viewBox="0 0 1024 1024" version="1.1" xmlns="http://www.w3.org/2000/svg" p-id="6927" xmlns:xlink="http://www.w3.org/1999/xlink" width="200" height="200"><defs><style type="text/css"></style></defs><path d="M555.00395996 991.65209961c-0.85271484 0-1.74418945-0.01937988-2.61628418-0.07751953-17.9263916-1.05620361-33.02332031-12.81010254-38.43030762-29.92253906v-0.01937989L406.34087891 619.99439697 62.52237793 512.8430249c-17.14150635-5.33915771-28.95354492-20.35856689-30.08726807-38.27526855-1.11434326-17.90701172 8.74032715-34.2830127 25.07756836-41.71519776l873.35441895-396.58992187c16.47290039-7.48063477 35.33921631-4.04070557 48.10086914 8.69187744 12.76165283 12.71320312 16.23065186 31.53106934 8.8469165 47.93614014L594.08349365 966.36135254c-7.01551758 15.57173584-22.17058594 25.29074707-39.07953369 25.29074707z m22.76167236-50.20358643l0.01937989 0.05813965c-0.01937988-0.02906982-0.01937988-0.04844971-0.01937989-0.05813965z m-435.13650878-473.74123535l289.4385498 90.21335449c17.27716553 5.4069873 30.82370361 18.89538574 36.2500708 36.11441163L558.89931641 881.57436523l341.70609375-758.06349609-757.97628662 344.19640869z" p-id="6928"></path></svg>