<?xml version="1.0" encoding="utf-8"?>
<!-- Generator: Adobe Illustrator 16.0.0, SVG Export Plug-In . SVG Version: 6.00 Build 0)  -->
<!DOCTYPE svg PUBLIC "-//W3C//DTD SVG 1.1//EN" "http://www.w3.org/Graphics/SVG/1.1/DTD/svg11.dtd">
<svg version="1.1" id="图层_1" xmlns="http://www.w3.org/2000/svg" xmlns:xlink="http://www.w3.org/1999/xlink" x="0px" y="0px"
	 width="25.512px" height="25.513px" viewBox="0 0 25.512 25.513" enable-background="new 0 0 25.512 25.513" xml:space="preserve">
<g>
	<path fill="#FFFFFF" d="M21.596,20.581H3.915c-0.318,0-0.576,0.258-0.576,0.577c0,0.318,0.258,0.576,0.576,0.576h17.681
		c0.318,0,0.577-0.258,0.577-0.576C22.173,20.839,21.914,20.581,21.596,20.581z"/>
	<path fill="#FFFFFF" d="M13.179,3.699c-0.057-0.062-0.126-0.11-0.205-0.143c-0.013-0.005-0.027-0.004-0.041-0.008
		c-0.053-0.017-0.107-0.033-0.167-0.033h-0.02c-0.06,0-0.114,0.017-0.167,0.033c-0.014,0.004-0.028,0.003-0.041,0.008
		c-0.079,0.032-0.148,0.081-0.205,0.143L5.552,10.48c-0.222,0.222-0.222,0.58,0,0.803l0.014,0.014c0.221,0.221,0.58,0.221,0.801,0
		l5.813-5.813v12.651c0,0.313,0.254,0.567,0.567,0.567h0.02c0.313,0,0.567-0.254,0.567-0.567V5.484l5.813,5.813
		c0.221,0.221,0.58,0.221,0.801,0l0.014-0.014c0.222-0.223,0.222-0.581,0-0.803L13.179,3.699z"/>
	<path fill="#FFFFFF" d="M24.095,0h-2.701v0.002c-0.314,0.004-0.568,0.259-0.568,0.574s0.254,0.57,0.568,0.574v0.002h2.397
		c0.313,0,0.567,0.254,0.567,0.567v22.071c0,0.313-0.254,0.566-0.567,0.566H1.721c-0.313,0-0.567-0.254-0.567-0.566V1.72
		c0-0.313,0.254-0.567,0.567-0.567h2.397c0.318,0,0.576-0.258,0.576-0.576S4.437,0,4.118,0H1.417C0.635,0,0,0.635,0,1.417v22.677
		c0,0.783,0.635,1.418,1.417,1.418h22.678c0.782,0,1.417-0.635,1.417-1.418V1.417C25.512,0.635,24.877,0,24.095,0z"/>
</g>
</svg>
