<?xml version="1.0" encoding="utf-8"?>
<!-- Generator: Adobe Illustrator 16.0.0, SVG Export Plug-In . SVG Version: 6.00 Build 0)  -->
<!DOCTYPE svg PUBLIC "-//W3C//DTD SVG 1.1//EN" "http://www.w3.org/Graphics/SVG/1.1/DTD/svg11.dtd">
<svg version="1.1" id="图层_1" xmlns="http://www.w3.org/2000/svg" xmlns:xlink="http://www.w3.org/1999/xlink" x="0px" y="0px"
	 width="25.512px" height="25.513px" viewBox="0 0 25.512 25.513" enable-background="new 0 0 25.512 25.513" xml:space="preserve">
<path fill="#FFFFFF" d="M25.313,22.017l-6.778-6.73c-0.132-0.131-0.263-0.197-0.46-0.197s-0.328,0.066-0.46,0.197l-0.659,0.594
	c-0.987-0.988-1.842-1.849-2.632-2.706l2.896-2.902l1.25-1.255c1.711,0.728,3.752,0.329,5.066-0.988
	c1.186-1.255,1.646-2.969,1.186-4.619l-0.131-0.461l-3.159,3.165l-2.698-2.639l3.226-3.166l-0.462-0.132
	c-1.645-0.464-3.422,0-4.606,1.187c-1.316,1.321-1.711,3.364-0.987,5.081l-1.25,1.254l-2.961,2.903
	C10.244,9.149,8.466,7.37,5.835,4.728L4.519,2.552c0-0.064-0.065-0.064-0.065-0.131L2.282,0.968c-0.066-0.132-0.265-0.065-0.33,0
	L0.965,1.957c-0.065,0.066-0.132,0.268,0,0.33l1.448,2.178c0.066,0.066,0.066,0.066,0.133,0.066l2.17,1.321
	c2.568,2.571,4.344,4.354,5.924,5.869l-2.962,2.971L6.427,15.88c-1.711-0.66-3.75-0.264-5.067,1.053
	c-1.183,1.189-1.645,2.973-1.183,4.555l0.131,0.461l3.224-3.166l2.632,2.639l-3.224,3.234l0.46,0.133
	c1.646,0.461,3.423,0,4.607-1.256c1.316-1.318,1.711-3.297,1.053-5.014l1.185-1.254l2.961-2.969
	c0.856,0.859,1.712,1.715,2.698,2.707l-0.658,0.592c-0.131,0.133-0.197,0.266-0.197,0.463s0.066,0.395,0.197,0.525l6.779,6.73
	c0.132,0.133,0.329,0.199,0.461,0.199c0.196,0,0.395-0.066,0.525-0.199l2.303-2.309c0.133-0.131,0.198-0.33,0.198-0.461
	C25.512,22.347,25.446,22.147,25.313,22.017z M22.024,23.796l-5.266-5.213l0.593-0.525l5.198,5.211L22.024,23.796z M23.274,22.544
	l-5.266-5.211l0.592-0.531l5.2,5.215L23.274,22.544z"/>
</svg>
