<?xml version="1.0" encoding="utf-8"?>
<!-- Generator: Adobe Illustrator 16.0.0, SVG Export Plug-In . SVG Version: 6.00 Build 0)  -->
<!DOCTYPE svg PUBLIC "-//W3C//DTD SVG 1.1//EN" "http://www.w3.org/Graphics/SVG/1.1/DTD/svg11.dtd">
<svg version="1.1" id="图层_1" xmlns="http://www.w3.org/2000/svg" xmlns:xlink="http://www.w3.org/1999/xlink" x="0px" y="0px"
	 width="25.512px" height="25.513px" viewBox="0 0 25.512 25.513" enable-background="new 0 0 25.512 25.513" xml:space="preserve">
<g>
	<path fill="#FFFFFF" d="M21.16,18.043L21.16,18.043c-0.673,0.41-1.494,0.447-2.166,0.187c-0.075-0.036-0.113-0.074-0.188-0.111
		c-0.411-0.188-0.747-0.522-1.01-0.896c-0.672-1.156-0.299-2.646,0.859-3.393c0.637-0.373,1.42-0.41,2.057-0.188
		c0.521,0.188,1.008,0.523,1.307,1.045c0.039,0.037,0.039,0.074,0.039,0.111C22.693,15.918,22.319,17.372,21.16,18.043
		 M20.862,15.358c-0.149-0.224-0.375-0.41-0.635-0.484c-0.263-0.075-0.599-0.038-0.86,0.149c-0.522,0.297-0.711,0.969-0.373,1.49
		c0.11,0.188,0.261,0.336,0.447,0.448c0.075,0,0.15,0.037,0.225,0.037c0.224,0.075,0.562,0.037,0.821-0.111
		c0.375-0.224,0.599-0.709,0.524-1.119C20.975,15.619,20.938,15.508,20.862,15.358 M25.122,16.029l-1.009-0.447
		c-0.037-0.186-0.037-0.336-0.075-0.484l0.823-0.746c0.223-0.223,0.298-0.597,0.111-0.895l-0.486-0.82
		c-0.188-0.262-0.522-0.41-0.822-0.262l-1.046,0.336c-0.112-0.074-0.261-0.187-0.374-0.262l0.037-1.081
		c0-0.336-0.223-0.671-0.521-0.746l-0.935-0.224c-0.188-0.037-0.374,0-0.562,0.075c-0.112,0.074-0.188,0.187-0.262,0.335
		l-0.447,0.97c-0.188,0-0.336,0.037-0.486,0.074l-0.748-0.821c-0.224-0.261-0.598-0.298-0.896-0.112l-0.822,0.485
		c-0.262,0.186-0.411,0.521-0.298,0.82l0.41,1.045c-0.112,0.111-0.224,0.26-0.336,0.371l-1.083-0.037
		c-0.15,0-0.299,0.037-0.374,0.074c-0.188,0.112-0.299,0.262-0.337,0.449l-0.225,0.932c-0.112,0.298,0.074,0.633,0.373,0.782
		l1.01,0.485c0,0.148,0.037,0.336,0.074,0.484l-0.859,0.709c-0.225,0.261-0.299,0.634-0.111,0.895l0.486,0.82
		c0.186,0.299,0.522,0.41,0.858,0.299l1.046-0.373c0.112,0.111,0.262,0.223,0.375,0.298l-0.038,1.081
		c-0.036,0.373,0.188,0.635,0.523,0.709l0.897,0.261c0.225,0.037,0.41,0,0.561-0.112c0.111-0.037,0.186-0.148,0.299-0.261
		l0.449-1.007c0.148-0.037,0.334-0.037,0.484-0.074l0.746,0.82c0.227,0.224,0.563,0.261,0.861,0.112l0.822-0.485
		c0.299-0.148,0.41-0.522,0.299-0.82l-0.373-1.044c0.11-0.149,0.225-0.261,0.298-0.373l1.084,0.038c0.149,0,0.261-0.038,0.411-0.111
		c0.148-0.113,0.262-0.263,0.299-0.411l0.261-0.933C25.57,16.514,25.383,16.179,25.122,16.029"/>
	<path fill="#FFFFFF" d="M10.35,22.737L10.35,22.737c-0.568,0.325-1.219,0.365-1.748,0.121c-0.08-0.04-0.121-0.04-0.162-0.04
		c-0.324-0.162-0.609-0.446-0.813-0.771c-0.528-0.932-0.243-2.107,0.692-2.676c0.527-0.284,1.137-0.365,1.666-0.203
		c0.406,0.162,0.772,0.446,1.056,0.853c0,0.04,0,0.081,0.042,0.121C11.569,21.033,11.244,22.209,10.35,22.737 M13.52,21.115
		l-0.813-0.365c0-0.122-0.04-0.283-0.08-0.365l0.648-0.608c0.203-0.162,0.244-0.487,0.123-0.689l-0.406-0.688
		c-0.122-0.203-0.406-0.325-0.65-0.203l-0.854,0.242c-0.081-0.08-0.202-0.161-0.324-0.201l0.04-0.893
		c0-0.244-0.163-0.487-0.406-0.527l-0.731-0.203c-0.162-0.04-0.325,0-0.407,0.041c-0.122,0.04-0.203,0.162-0.242,0.242l-0.367,0.812
		c-0.162,0-0.284,0.04-0.406,0.04L8.074,17.1c-0.205-0.203-0.487-0.203-0.732-0.08l-0.648,0.404
		c-0.246,0.122-0.327,0.406-0.246,0.649l0.326,0.812c-0.08,0.08-0.203,0.202-0.284,0.324l-0.854-0.041c-0.122,0-0.204,0-0.325,0.081
		c-0.122,0.081-0.244,0.163-0.244,0.365l-0.204,0.73c-0.039,0.243,0.081,0.526,0.326,0.649l0.771,0.363
		c0,0.123,0.042,0.244,0.081,0.365l-0.65,0.608c-0.202,0.163-0.242,0.487-0.121,0.689l0.406,0.689
		c0.122,0.203,0.407,0.325,0.65,0.203l0.854-0.284c0.121,0.081,0.203,0.162,0.326,0.243l-0.042,0.853
		c0,0.283,0.162,0.526,0.405,0.566l0.732,0.204c0.163,0.041,0.325,0,0.447-0.04c0.082-0.082,0.162-0.164,0.205-0.285l0.404-0.77
		c0.123,0,0.245-0.041,0.367-0.082l0.607,0.689c0.164,0.162,0.449,0.203,0.693,0.081l0.648-0.405
		c0.205-0.121,0.326-0.405,0.244-0.648l-0.284-0.852c0.081-0.081,0.122-0.203,0.245-0.284h0.854c0.08,0.04,0.203,0,0.324-0.041
		c0.121-0.081,0.203-0.202,0.245-0.364l0.202-0.73C13.846,21.521,13.723,21.236,13.52,21.115 M10.105,20.588
		c-0.121-0.203-0.324-0.324-0.527-0.406c-0.205-0.04-0.447,0-0.691,0.122c-0.406,0.243-0.568,0.771-0.285,1.218
		c0.082,0.121,0.203,0.242,0.366,0.324c0.04,0,0.081,0.04,0.163,0.04c0.203,0.081,0.447,0.04,0.65-0.081
		c0.324-0.203,0.447-0.568,0.405-0.893C10.187,20.791,10.146,20.709,10.105,20.588"/>
	<path fill="#FFFFFF" d="M11.344,8.009L11.344,8.009c-0.115,1.804-1.622,3.233-3.468,3.233c-1.131,0-2.149-0.526-2.751-1.354
		C5.051,9.775,5.012,9.701,4.937,9.625C4.635,9.136,4.447,8.498,4.447,7.82c0-1.917,1.545-3.458,3.429-3.458
		c1.055,0,2.034,0.488,2.638,1.24c0.49,0.64,0.83,1.392,0.83,2.218V8.009z M15.752,8.498V7.144c0-0.451-0.34-0.865-0.793-0.94
		l-1.507-0.3c-0.075-0.226-0.15-0.452-0.263-0.64l0.865-1.278c0.264-0.414,0.228-0.902-0.113-1.241l-0.979-0.94
		c-0.15-0.187-0.415-0.263-0.678-0.263c-0.189,0-0.378,0.038-0.529,0.15L10.475,2.52c-0.225-0.113-0.414-0.188-0.678-0.264
		L9.496,0.752C9.42,0.302,9.007,0,8.555,0H7.236C6.745,0,6.331,0.302,6.219,0.752L5.953,2.256C5.727,2.332,5.539,2.407,5.313,2.52
		l-1.28-0.827c-0.151-0.112-0.377-0.15-0.565-0.15c-0.228,0-0.489,0.076-0.679,0.263l-0.943,0.94
		C1.509,3.083,1.47,3.572,1.734,3.986l0.828,1.278c-0.075,0.188-0.188,0.414-0.264,0.64l-1.507,0.3C0.34,6.279,0,6.693,0,7.144
		v1.354c0,0.451,0.34,0.864,0.792,0.977l1.507,0.3c0.076,0.188,0.188,0.414,0.264,0.602l-0.828,1.278
		c-0.265,0.413-0.226,0.902,0.111,1.241l0.943,0.939c0.189,0.188,0.451,0.301,0.679,0.301c0.188,0,0.414-0.037,0.565-0.15
		l1.28-0.864c0.226,0.075,0.413,0.188,0.64,0.263l0.303,1.504c0.075,0.451,0.489,0.789,0.98,0.789h1.318
		c0.452,0,0.865-0.338,0.941-0.789l0.301-1.504c0.264-0.075,0.453-0.188,0.678-0.263l1.281,0.864c0.151,0.075,0.34,0.15,0.529,0.15
		c0.263,0,0.527-0.113,0.678-0.301l0.979-0.939c0.341-0.339,0.377-0.828,0.113-1.241l-0.865-1.278
		c0.112-0.188,0.188-0.414,0.263-0.639l1.507-0.263C15.412,9.362,15.752,8.949,15.752,8.498 M7.876,6.279
		c-0.829,0-1.545,0.677-1.545,1.542c0,0.339,0.112,0.602,0.302,0.865c0.037,0.075,0.112,0.15,0.15,0.226
		c0.264,0.263,0.64,0.451,1.093,0.451c0.64,0,1.206-0.414,1.432-0.978C9.383,8.197,9.42,8.009,9.42,7.82
		c0-0.375-0.15-0.751-0.413-1.015C8.741,6.467,8.328,6.279,7.876,6.279"/>
</g>
</svg>
