<?xml version="1.0" encoding="utf-8"?>
<!-- Generator: Adobe Illustrator 16.0.0, SVG Export Plug-In . SVG Version: 6.00 Build 0)  -->
<!DOCTYPE svg PUBLIC "-//W3C//DTD SVG 1.1//EN" "http://www.w3.org/Graphics/SVG/1.1/DTD/svg11.dtd">
<svg version="1.1" id="图层_1" xmlns="http://www.w3.org/2000/svg" xmlns:xlink="http://www.w3.org/1999/xlink" x="0px" y="0px"
	 width="25.512px" height="25.513px" viewBox="0 0 25.512 25.513" enable-background="new 0 0 25.512 25.513" xml:space="preserve">
<path fill="#FFFFFF" d="M25.05,12.421l-5.437-2.032V3.2c0-0.341-0.19-0.641-0.498-0.77l-6.321-2.363C12.673,0,12.565,0,12.514,0
	s-0.158,0-0.225,0.042L5.87,2.468C5.576,2.59,5.386,2.89,5.386,3.231v6.974l-4.901,1.852C0.19,12.18,0,12.479,0,12.82v9.492
	c0,0.342,0.19,0.641,0.499,0.77l6.352,2.364c0.119,0.066,0.227,0.066,0.277,0.066c0.052,0,0.16,0,0.224-0.041l6.393-2.396
	c0.013-0.005,0.022-0.016,0.036-0.021l4.889,1.82c0.111,0.061,0.21,0.061,0.258,0.061c0.047,0,0.147,0,0.207-0.038l5.93-2.222
	c0.272-0.114,0.449-0.392,0.449-0.708v-8.833C25.513,12.817,25.336,12.54,25.05,12.421z M13.064,14.713V6.646l5.661-2.314v8.256
	L13.064,14.713z M12.508,1.008l6.135,2.297l-6.106,2.496l-6.1-2.496L12.508,1.008z M6.274,4.3l5.902,2.414v8.075l-5.902-2.201V4.3z
	 M6.791,24.378l-5.902-2.201v-8.288l5.902,2.415V24.378z M7.151,15.39l-6.1-2.495l4.334-1.641v1.469c0,0.343,0.19,0.642,0.499,0.771
	l3.091,1.15L7.151,15.39z M7.679,16.235l2.655-1.086l1.901,0.708c0.12,0.065,0.227,0.065,0.278,0.065s0.159,0,0.224-0.041
	l0.603-0.226v6.521l-5.661,2.125V16.235z M18.614,23.884l-4.387-1.637v-6.923l0.924-0.346l3.463,1.415V23.884z M18.948,15.547
	l-2.541-1.04l2.723-1.02c0.293-0.123,0.483-0.422,0.483-0.765v-1.363l4.998,1.871L18.948,15.547z M24.688,21.842l-5.251,1.971
	v-7.481l5.251-2.146V21.842z"/>
</svg>
